<?xml version="1.0" encoding="utf-8"?>
<!-- Generator: Adobe Illustrator 28.3.0, SVG Export Plug-In . SVG Version: 6.00 Build 0)  -->
<svg version="1.1" id="图层_1" xmlns="http://www.w3.org/2000/svg" xmlns:xlink="http://www.w3.org/1999/xlink" x="0px" y="0px"
	 viewBox="0 0 250 250" style="enable-background:new 0 0 250 250;" xml:space="preserve">
<style type="text/css">
	.st0{fill:#4BEEC5;stroke:#FFFFFF;stroke-miterlimit:10;}
</style>
<path class="st0" d="M186.57,135.63c24.22-13.41,39.46-27.36,48.8-39.62c9.34-12.26,13.77-26.92,13.31-43.99
	c-0.97-35.25-23.93-51.87-68.96-50.64c-8.11,0.45-11.02,0.85-11.84,0.9c0,0-11.2,0.77-11.19,0.74c-0.15,0.03-70.64,5.17-70.64,5.17
	c-15.55,1.12-25.5,3.43-29.87,6.93c-4.37,3.5-7.42,11.73-9.17,24.68c13.82-5.34,30.48-8.71,49.97-10.12l17.15-1.24l2.43-0.18
	c-1.84,2.55-3.8,5.35-5.89,8.44c-26.64,39.31-46.43,70.58-59.38,93.83l-3.34,5.91l-15.34-0.44c-16.99,0-27.42,8.32-31.3,24.97
	c7.42-5.02,17.9-7.54,31.42-7.54h6.31l-3.83,7.54c-14.27,28.08-21.4,48.96-21.4,62.65c0,6.6,2.89,9.9,8.66,9.9
	c2.89,0,5.94-0.69,9.15-2.07c6.93-3.06,11.38-4.97,13.36-5.76c-2.39-3.55-3.59-7.19-3.59-10.93c0-12.71,5.2-30.64,15.59-53.79
	l2.47-5.61l33.77,0.74c13.86,0,27.59-0.89,41.2-2.66c0,0.02,2.06-0.27,2.15-0.24c0.53,2.19,43.07,95.47,62.37,95.47
	c7.59,0,15.46-4.46,23.63-13.37c8.17-8.91,12.25-17.51,12.25-25.78c0-0.98-0.21-2.71-0.62-5.17c-8.58,12.61-16.62,18.91-24.12,18.91
	c-10.41,0-42.34-46.58-49.67-76.5C172.87,142.42,181.63,138.49,186.57,135.63z M93.3,138.77l-24.99-0.74l2.6-5.76
	c8-18.71,20.58-40.64,37.73-65.75c9.48-13.79,15.59-22.76,18.31-26.89l-0.12,11.08c0,22.76-0.54,56.42,5.76,86.33
	C123.51,138.41,110.37,138.77,93.3,138.77z M156.36,129.78c-5.87-24.82-4.94-51.74-4.25-77.05c0.23-8.59,1.99-25.6,2.09-27.09
	c-0.46-1.95,6.86-1.48,15.22-1.48c3.18-0.04,29.99,1.37,38.67,7.88c8.67,6.52,13.16,15.02,13.44,25.5
	c0.78,28.45-29.33,54.81-43.73,61.64C170.48,123.08,163.75,126.67,156.36,129.78z"/>
</svg>
